<?xml version="1.0" encoding="UTF-8" standalone="no"?>
<!-- Created with Inkscape (http://www.inkscape.org/) -->

<svg
   xmlns:dc="http://purl.org/dc/elements/1.1/"
   xmlns:cc="http://creativecommons.org/ns#"
   xmlns:rdf="http://www.w3.org/1999/02/22-rdf-syntax-ns#"
   xmlns:svg="http://www.w3.org/2000/svg"
   xmlns="http://www.w3.org/2000/svg"
   xmlns:sodipodi="http://sodipodi.sourceforge.net/DTD/sodipodi-0.dtd"
   xmlns:inkscape="http://www.inkscape.org/namespaces/inkscape"
   width="198.75969"
   height="200"
   id="svg2"
   version="1.1"
   inkscape:version="0.48.1 "
   sodipodi:docname="New document 1">
  <defs
     id="defs4" />
  <sodipodi:namedview
     id="base"
     pagecolor="#ffffff"
     bordercolor="#666666"
     borderopacity="1.0"
     inkscape:pageopacity="0.0"
     inkscape:pageshadow="2"
     inkscape:zoom="1"
     inkscape:cx="210.97348"
     inkscape:cy="53.519807"
     inkscape:document-units="px"
     inkscape:current-layer="layer1"
     showgrid="false"
     fit-margin-top="0"
     fit-margin-left="0"
     fit-margin-right="0"
     fit-margin-bottom="0"
     inkscape:window-width="1024"
     inkscape:window-height="721"
     inkscape:window-x="-4"
     inkscape:window-y="-4"
     inkscape:window-maximized="1" />
  <metadata
     id="metadata7">
    <rdf:RDF>
      <cc:Work
         rdf:about="">
        <dc:format>image/svg+xml</dc:format>
        <dc:type
           rdf:resource="http://purl.org/dc/dcmitype/StillImage" />
        <dc:title></dc:title>
      </cc:Work>
    </rdf:RDF>
  </metadata>
  <g
     inkscape:label="Layer 1"
     inkscape:groupmode="layer"
     id="layer1"
     transform="translate(-84.603081,-171.981)">
    <g
       id="g3153"
       transform="matrix(0.31007752,0,0,0.31007752,49.222281,136.79308)">
      <path
         style="fill:#fdfdfd"
         d="m 435.60308,717.01676 c -11,0.18364 -22.7,-0.0427 -26,-0.50299 -3.3,-0.46029 -9.6,-1.81537 -14,-3.01129 -4.4,-1.19592 -10.57657,-3.04108 -13.7257,-4.10036 -3.14914,-1.05928 -8.32414,-3.1015 -11.5,-4.53827 -3.17587,-1.43677 -6.4493,-3.18532 -7.2743,-3.88566 -0.825,-0.70035 -3.975,-2.53051 -7,-4.06702 -3.025,-1.53652 -8.425,-5.05335 -12,-7.81517 -3.575,-2.76183 -11.63376,-9.76741 -17.90836,-15.56795 -7.93581,-7.33626 -12.9827,-12.98163 -16.58055,-18.54673 -2.8447,-4.40015 -6.56298,-10.25028 -8.26284,-13.00028 -1.69986,-2.75 -4.29762,-7.7 -5.7728,-11 -1.47518,-3.3 -3.98303,-9.78918 -5.57299,-14.4204 -1.58996,-4.63122 -3.79581,-13.40622 -4.90189,-19.5 -1.10608,-6.09378 -2.21183,-12.264 -2.45721,-13.71159 -0.44616,-2.632 -0.44616,-2.632 13.18664,-3.36216 12.05768,-0.64581 13.77243,-0.53923 14.84124,0.92246 0.66463,0.90894 1.51843,4.1338 1.89732,7.16636 0.37889,3.03255 1.5796,8.72793 2.66823,12.6564 1.08864,3.92848 3.53148,10.89225 5.42854,15.47507 1.89706,4.58281 5.73523,12.01821 8.52926,16.52312 2.79403,4.5049 8.75326,12.26939 13.24273,17.2544 4.48947,4.98502 10.86268,11.14306 14.16268,13.68453 3.3,2.54147 11.9779,7.57192 19.28422,11.17878 7.30632,3.60685 14.95632,7.04815 17,7.64732 2.04368,0.59916 7.09078,2.04007 11.21578,3.20201 6.49424,1.82931 10.18203,2.11289 27.5,2.11464 19.22929,0.002 20.44691,-0.1178 31.59727,-3.10765 7.67914,-2.05908 15.78752,-5.19641 24,-9.2862 6.8215,-3.39709 15.32773,-8.1092 18.90273,-10.47137 3.575,-2.36216 10.775,-8.88114 16,-14.48661 5.225,-5.60547 11.21625,-12.87197 13.3139,-16.14779 2.09764,-3.27581 6.22786,-11.29211 9.17826,-17.81399 3.29158,-7.27606 6.16488,-15.55281 7.4361,-21.42021 1.63914,-7.56552 2.06812,-13.06347 2.05441,-26.32967 -0.01,-9.2221 -0.45375,-21.04245 -0.98715,-26.26745 -0.53341,-5.225 -1.67647,-13.55 -2.54013,-18.5 -0.86367,-4.95 -3.20799,-14.85 -5.20961,-22 -2.00162,-7.15 -5.85222,-18.625 -8.55689,-25.5 -2.70467,-6.875 -5.93252,-14.525 -7.173,-17 -2.25542,-4.5 -2.25542,-4.5 6.46084,-17.77525 8.71627,-13.27526 8.71627,-13.27526 11.32763,-9.5 1.43624,2.07639 4.69954,8.50025 7.25176,14.27525 2.55222,5.775 7.2617,17.71495 10.4655,26.53323 3.20381,8.81828 6.77232,19.74311 7.93003,24.27742 1.15771,4.5343 3.00722,12.61935 4.11002,17.96677 1.10279,5.34742 2.66073,15.57258 3.46208,22.72258 0.80135,7.15 1.46133,19.95165 1.46662,28.4481 0.005,8.49646 -0.47193,19.29646 -1.0605,24 -0.58857,4.70355 -2.64878,13.9519 -4.57825,20.5519 -1.92947,6.6 -5.41664,16.05 -7.74927,21 -2.33263,4.95 -4.93906,9.697 -5.79207,10.5489 -0.85301,0.85189 -2.28585,2.97007 -3.18408,4.70706 -0.89823,1.73699 -3.63274,6.0186 -6.07668,9.51469 -2.44394,3.49609 -6.61834,8.35291 -9.27644,10.79294 -2.6581,2.44002 -7.74445,6.99462 -11.30299,10.12132 -3.55855,3.1267 -9.39509,7.85803 -12.97009,10.51406 -3.575,2.65604 -11,7.3853 -16.5,10.50948 -5.5,3.12418 -13.375,6.96891 -17.5,8.54383 -4.125,1.57493 -9.75,3.42837 -12.5,4.11875 -2.75,0.69039 -6.8,1.7237 -9,2.29625 -2.2,0.57255 -5.125,1.48954 -6.5,2.03777 -1.375,0.54822 -11.5,1.14702 -22.5,1.33067 z m -151.5,-140.70728 c -3.575,-0.0906 -8.3,-0.32055 -10.5,-0.51111 -2.2,-0.19055 -8.46599,-1.06841 -13.92442,-1.95079 -5.45843,-0.88239 -12.88343,-2.62998 -16.5,-3.88354 -3.61657,-1.25356 -11.31423,-4.25763 -17.10592,-6.67572 -5.79169,-2.41809 -14.62605,-7.20172 -19.63191,-10.6303 -5.00585,-3.42858 -12.92672,-9.60514 -17.60193,-13.72569 -4.6752,-4.12054 -11.17867,-10.74526 -14.45216,-14.7216 -3.27348,-3.97633 -8.57252,-11.05469 -11.77565,-15.72969 -3.20313,-4.675 -7.9592,-13 -10.56906,-18.5 -2.60985,-5.5 -5.88492,-13.375 -7.27793,-17.5 -1.393,-4.125 -3.51254,-12.225 -4.71009,-18 -1.69844,-8.1905 -2.20096,-14.23919 -2.28467,-27.5 -0.0814,-12.90049 0.3194,-18.92918 1.66222,-25 0.97324,-4.4 2.44862,-10.7 3.27861,-14 0.83,-3.3 2.34291,-8.25 3.36204,-11 1.01913,-2.75 3.70663,-9.01197 5.97222,-13.91548 2.2656,-4.90352 6.22047,-11.87852 8.78862,-15.5 2.56814,-3.62149 7.81719,-10.18452 11.66456,-14.58452 3.84737,-4.4 9.04503,-9.82488 11.55035,-12.05528 2.50531,-2.23041 9.05512,-7.46671 14.55512,-11.63624 5.5,-4.16952 13.6,-9.37617 18,-11.57033 4.4,-2.19416 11.6,-5.42961 16,-7.18989 4.4,-1.76027 13.175,-4.5524 19.5,-6.20471 6.325,-1.65232 14.9875,-3.25736 19.25,-3.56677 7.75,-0.56257 7.75,-0.56257 7.75,13.10177 0,13.22988 -0.0715,13.69371 -2.25,14.58862 -1.2375,0.50837 -6.01864,1.64879 -10.62475,2.53428 -4.60611,0.88549 -12.02569,2.76331 -16.48796,4.17294 -4.46227,1.40963 -12.16863,4.53768 -17.12525,6.95122 -4.95662,2.41354 -13.80175,7.96393 -19.65584,12.3342 -5.85409,4.37027 -13.13291,10.77966 -16.17515,14.24307 -3.04225,3.46342 -7.18561,8.77212 -9.20748,11.79712 -2.02188,3.025 -5.4209,8.48698 -7.55339,12.13772 -2.13249,3.65075 -5.25513,10.85075 -6.93921,16 -1.68408,5.14926 -3.73721,12.51228 -4.56253,16.36228 -0.82532,3.85 -1.75772,11.05 -2.07201,16 -0.37715,5.94001 -0.007,13.03007 1.08996,20.85316 0.91377,6.51923 2.80254,15.4655 4.19727,19.88059 1.39472,4.41509 4.08092,11.41785 5.96933,15.56168 1.8884,4.14383 5.46354,10.61571 7.94475,14.38195 2.48121,3.76624 7.50687,10.02318 11.16814,13.90431 3.66126,3.88113 10.06048,9.88288 14.22048,13.33721 4.16,3.45433 10.57086,8.16942 14.24634,10.47799 3.67549,2.30856 10.20246,5.72269 14.50438,7.58695 4.30192,1.86426 14.1197,5.07876 21.81729,7.14333 13.35524,3.58202 14.72773,3.75584 29.99563,3.79876 10.82936,0.0305 19.23165,-0.51374 26,-1.68394 5.5,-0.95091 13.375,-2.46133 17.5,-3.35648 4.125,-0.89515 14.02304,-3.43219 21.99564,-5.63787 7.9726,-2.20567 16.7476,-5.02597 19.5,-6.26732 2.7524,-1.24135 8.60436,-3.70763 13.00436,-5.48062 4.4,-1.77299 9.16839,-3.6958 10.59642,-4.27292 2.25016,-0.90938 3.4257,-0.52772 8.81494,2.86195 3.42019,2.1512 8.45885,5.65262 11.19703,7.78093 2.73818,2.12831 4.81298,4.36622 4.61068,4.97312 -0.2023,0.60691 -2.80935,2.55409 -5.79344,4.32708 -2.9841,1.77299 -12.17563,6.37049 -20.42563,10.21667 -12.18679,5.68152 -19.12605,8.11674 -37,12.98456 -12.1,3.29534 -25.825,6.69135 -30.5,7.5467 -4.675,0.85534 -15.7,2.2347 -24.5,3.06524 -8.8,0.83053 -18.925,1.43597 -22.5,1.34541 z m 306.90324,-4.82844 c -1.63131,0 -3.13979,-0.5625 -3.3522,-1.25 -0.2124,-0.6875 -0.6574,-6.69983 -0.98888,-13.36074 -0.48622,-9.77037 -0.32918,-12.33772 0.81263,-13.28534 0.77842,-0.64604 3.82504,-1.57411 6.77026,-2.06239 2.94522,-0.48828 7.43559,-1.36154 9.97859,-1.94057 2.54301,-0.57904 7.8434,-2.21423 11.77867,-3.63376 3.93526,-1.41952 10.62962,-4.45022 14.87635,-6.73488 4.24674,-2.28467 9.74634,-5.65151 12.22134,-7.48187 2.475,-1.83037 6.9116,-5.448 9.85912,-8.03919 2.94752,-2.5912 8.51775,-7.94294 12.37831,-11.89277 3.86055,-3.94983 8.78709,-9.79983 10.94786,-13 2.16078,-3.20017 5.54182,-8.96849 7.51341,-12.81849 1.9716,-3.85 4.66873,-10.15 5.99361,-14 1.32489,-3.85 3.3013,-11.275 4.39203,-16.5 1.46239,-7.00545 1.9754,-13.30747 1.95371,-24 -0.0224,-11.03838 -0.51439,-16.52923 -2.06082,-23 -1.11726,-4.675 -3.19943,-11.65 -4.62704,-15.5 -1.42761,-3.85 -4.17982,-9.925 -6.11602,-13.5 -1.9362,-3.575 -5.54901,-9.425 -8.02847,-13 -2.47945,-3.575 -5.67755,-7.79023 -7.1069,-9.36718 -1.42934,-1.57695 -6.1988,-5.85786 -10.5988,-9.51314 -4.4,-3.65528 -9.70408,-7.9131 -11.78685,-9.46182 -2.08277,-1.54872 -8.39122,-5.01532 -14.01878,-7.70354 -5.62755,-2.68823 -14.7123,-6.26683 -20.18834,-7.95246 -5.47603,-1.68563 -14.01758,-3.49283 -18.98122,-4.01599 -4.96365,-0.52317 -14.74016,-0.95901 -21.72559,-0.96854 -6.98543,-0.01 -14.86043,0.40466 -17.5,0.92042 -2.63957,0.51576 -9.52422,1.67322 -15.29922,2.57213 -5.775,0.89891 -15.675,2.92583 -22,4.50426 -6.325,1.57842 -15.09455,4.02096 -19.48788,5.42786 -4.39333,1.4069 -8.31852,2.558 -8.72264,2.558 -0.40412,0 -5.97846,2.25 -12.38744,5 -6.40897,2.75 -11.95544,5 -12.32549,5 -0.37005,0 -5.15115,-2.9291 -10.62468,-6.50911 -5.47353,-3.58001 -11.16737,-7.28138 -12.65298,-8.22528 -2.57054,-1.63322 -2.61888,-1.80861 -1,-3.62828 0.93561,-1.05166 6.87611,-4.36869 13.20111,-7.37116 6.325,-3.00248 17.125,-7.48901 24,-9.97008 6.875,-2.48106 17.225,-5.85024 23,-7.48706 5.775,-1.63683 12.3,-3.3565 14.5,-3.82149 2.2,-0.465 4.675,-1.08824 5.5,-1.38499 0.825,-0.29675 8.25,-1.77857 16.5,-3.29294 13.39024,-2.4579 17.36099,-2.75619 37,-2.7795 19.48917,-0.0231 23.19835,0.24158 32.5,2.31947 5.775,1.29007 14.1,3.47967 18.5,4.86578 4.4,1.38611 13.40448,5.08375 20.00996,8.21699 7.1124,3.37369 16.04586,8.67753 21.90689,13.00624 5.44331,4.0202 11.91224,9.16614 14.37539,11.43543 2.46316,2.26929 7.68811,7.95098 11.61102,12.62598 3.9229,4.675 8.83069,10.83575 10.90618,13.69056 2.0755,2.85481 6.02537,9.96424 8.77749,15.79873 2.75212,5.83449 6.28264,14.52374 7.8456,19.30944 1.56296,4.7857 3.56736,12.97627 4.45422,18.20127 0.88687,5.225 1.8139,14.9 2.06008,21.5 0.24617,6.6 -0.006,14.7 -0.5603,18 -0.55435,3.3 -1.71177,9.825 -2.57206,14.5 -0.86029,4.675 -3.12673,13 -5.03655,18.5 -1.90981,5.5 -5.19713,13.2778 -7.30514,17.28399 -2.10802,4.0062 -6.95505,11.6562 -10.77117,17 -3.81613,5.34381 -8.62792,11.74101 -10.69288,14.21601 -2.06495,2.475 -7.55565,7.97588 -12.20155,12.22419 -4.6459,4.2483 -12.59926,10.6191 -17.67413,14.15733 -5.07487,3.53823 -12.13089,8.00003 -15.68004,9.9151 -3.54916,1.91507 -12.75301,5.54767 -20.45301,8.07245 -7.7,2.52478 -17.29192,5.2746 -21.31538,6.11072 -4.02345,0.83611 -8.65008,1.52021 -10.28138,1.52021 z m -44.03806,-1.32272 c -1.85085,0.005 -4.49018,-0.15976 -5.86518,-0.36725 -1.375,-0.20749 -8.47444,-1.50323 -15.77653,-2.87942 -7.30209,-1.37618 -19.4286,-4.07891 -26.9478,-6.00605 -7.51919,-1.92714 -18.01819,-5.25648 -23.3311,-7.39852 -5.31291,-2.14205 -17.0364,-7.4993 -26.0522,-11.90502 -9.0158,-4.40571 -20.44237,-10.54845 -25.39237,-13.65053 -4.95,-3.10208 -13.275,-8.85604 -18.5,-12.78658 -5.225,-3.93053 -14.70908,-11.28419 -21.07573,-16.34145 -6.36666,-5.05726 -17.04543,-14.88751 -23.73062,-21.84499 -6.68518,-6.95749 -13.57967,-14.75316 -15.32107,-17.32372 -3.1662,-4.67375 -3.1662,-4.67375 2.19817,-15.06547 2.9504,-5.71545 6.21583,-11.47419 7.25652,-12.79721 1.89216,-2.40549 1.89216,-2.40549 5.53245,1.4533 2.00215,2.12234 7.43074,8.68141 12.06352,14.57571 4.63279,5.89431 12.05779,14.20026 16.5,18.45766 4.44222,4.25741 11.39806,10.43208 15.45743,13.7215 4.05936,3.28942 9.00936,7.25361 11,8.80932 1.99063,1.5557 8.79433,6.24592 15.11933,10.42271 6.325,4.17678 19.66425,11.5883 29.64277,16.47004 9.97852,4.88174 22.80352,10.4564 28.5,12.38813 5.69648,1.93173 15.30723,4.86666 21.35723,6.52207 6.05,1.65541 15.5,3.88763 21,4.96048 5.5,1.07284 11.88028,1.99746 14.17841,2.05471 3.11442,0.0776 4.19704,0.51776 4.25158,1.72869 0.0403,0.89353 0.3493,7.28725 0.68678,14.20825 0.61359,12.58364 0.61359,12.58364 -2.75159,12.59364 z M 293.98649,543.48104 c -10.8666,0 -10.8666,0 -10.3784,-6.58177 0.26852,-3.61997 1.6083,-12.73247 2.9773,-20.25 1.369,-7.51752 3.34626,-16.59323 4.39391,-20.16823 1.04765,-3.575 3.35699,-11 5.13186,-16.5 1.77487,-5.5 5.00072,-14.46326 7.16855,-19.91836 2.16783,-5.4551 6.64456,-15.3551 9.9483,-22 3.30373,-6.6449 8.87442,-16.35664 12.37929,-21.58164 3.50488,-5.225 11.39232,-15.8 17.52766,-23.5 6.13533,-7.7 14.38411,-17.375 18.33061,-21.5 3.9465,-4.125 10.32123,-10.425 14.16606,-14 3.84483,-3.575 10.72648,-9.3125 15.29257,-12.75 4.56608,-3.4375 9.28678,-6.2431 10.49043,-6.23467 1.20365,0.008 6.72649,2.37093 12.27297,5.25 5.54649,2.87907 11.06907,5.9591 12.2724,6.84451 1.39304,1.02499 1.95923,2.2057 1.55849,3.25 -0.34616,0.90209 -1.4115,1.64016 -2.36741,1.64016 -0.95591,0 -2.59527,0.95238 -3.64301,2.1164 -1.04775,1.16401 -3.92999,3.49729 -6.40499,5.18506 -2.475,1.68776 -8.39161,6.35199 -13.14802,10.36496 -4.75641,4.01296 -14.03886,13.04218 -20.62768,20.06494 -6.58881,7.02275 -14.18609,15.46864 -16.88285,18.76864 -2.69676,3.3 -7.16515,9.15 -9.92976,13 -2.76461,3.85 -8.16782,12.85 -12.00712,20 -3.83931,7.15 -8.2776,15.925 -9.86288,19.5 -1.58528,3.575 -3.95696,9.2 -5.27039,12.5 -1.31344,3.3 -3.51973,9.375 -4.90287,13.5 -1.38314,4.125 -3.17103,10.425 -3.97309,14 -0.80206,3.575 -2.34108,11.225 -3.42005,17 -1.07897,5.775 -2.43541,12.81037 -3.01431,15.63416 -0.94605,4.61461 -1.36416,5.19648 -4.13177,5.75 -1.69357,0.33871 -7.96918,0.61584 -13.9458,0.61584 z m 168.47269,-31.07887 c -0.47086,-0.0434 -2.8811,-1.07559 -5.3561,-2.29379 -2.475,-1.21821 -7.05091,-3.68003 -10.1687,-5.47071 -3.11778,-1.79068 -6.1711,-3.86114 -6.78516,-4.60103 -0.8635,-1.04046 -0.48543,-1.82765 1.6687,-3.47443 1.53184,-1.17105 7.73516,-6.10545 13.78516,-10.96534 6.05,-4.85988 14.38468,-12.16158 18.52152,-16.22599 4.13683,-4.06441 8.63515,-8.73984 9.99627,-10.38984 1.36112,-1.65 5.62643,-6.93702 9.47848,-11.74893 3.85205,-4.81191 8.55121,-10.88691 10.44259,-13.5 1.89137,-2.61309 5.94453,-8.35107 9.00702,-12.75107 3.0625,-4.4 7.61951,-11.6 10.1267,-16 2.50718,-4.4 5.30722,-9.6234 6.22229,-11.60755 0.91508,-1.98416 3.65899,-8.36984 6.0976,-14.19042 2.4386,-5.82057 6.24115,-16.34717 8.45011,-23.39244 2.20895,-7.04528 4.72839,-15.59521 5.59875,-18.99986 0.87036,-3.40466 2.2206,-9.84557 3.00054,-14.31316 0.77994,-4.46758 1.95468,-8.76946 2.61054,-9.55972 0.91916,-1.10751 4.0295,-1.43685 13.57003,-1.43685 12.37756,0 12.37756,0 12.37756,2.81634 0,1.54899 -0.48734,5.48649 -1.08297,8.75 -0.59564,3.26351 -2.41721,11.55866 -4.04793,18.43366 -1.63073,6.875 -5.02733,18.575 -7.54801,26 -2.52068,7.425 -5.90943,16.86315 -7.53057,20.97366 -1.62114,4.11051 -5.70614,12.66051 -9.07777,19 -3.37163,6.33949 -10.15359,17.82634 -15.07102,25.52634 -4.91743,7.7 -11.011,16.85113 -13.54126,20.33584 -2.53026,3.48471 -8.47695,10.90971 -13.21488,16.5 -4.73792,5.59029 -11.95451,13.31416 -16.03687,17.16416 -4.08237,3.85 -10.78088,9.72069 -14.8856,13.04598 -4.10472,3.32529 -9.32788,7.48779 -11.60702,9.25 -2.27915,1.76221 -4.52915,3.16853 -5,3.12515 z m 46.19546,-92.96392 c -1.07262,0.89019 -2.01657,0.32163 -4.42074,-2.66266 -1.68129,-2.087 -5.30965,-6.57067 -8.06303,-9.9637 -2.75337,-3.39303 -10.16219,-11.49303 -16.46405,-18 -6.30185,-6.50697 -15.65322,-15.10608 -20.78083,-19.10914 -5.1276,-4.00307 -12.47291,-9.72739 -16.32291,-12.72073 -3.85,-2.99335 -12.175,-8.31197 -18.5,-11.81917 -6.325,-3.5072 -14.19454,-7.3791 -17.48786,-8.60423 -3.29332,-1.22512 -6.44332,-2.59409 -7,-3.04216 -0.55668,-0.44806 -5.28714,-2.60966 -10.51214,-4.80355 -5.225,-2.1939 -13.1,-5.12831 -17.5,-6.52093 -4.4,-1.39262 -13.175,-3.88515 -19.5,-5.53897 -6.325,-1.65381 -15.775,-3.75334 -21,-4.66562 -5.225,-0.91228 -10.48103,-1.85009 -11.68007,-2.08402 -1.19904,-0.23393 -2.88654,-1.1318 -3.75,-1.99526 -1.23463,-1.23463 -1.56993,-3.8991 -1.56993,-12.47545 0,-10.22792 0.14076,-10.99774 2.26541,-12.38987 2.00319,-1.31254 3.42112,-1.31226 12.25,0.002 5.49153,0.81773 14.03459,2.4223 18.98459,3.56571 4.95,1.14341 11.475,2.76109 14.5,3.59484 3.025,0.83376 8.425,2.40201 12,3.48502 3.575,1.083 9.875,3.11712 14,4.52026 4.125,1.40314 9.975,3.65528 13,5.00475 3.025,1.34947 10.225,4.7509 16,7.55875 5.775,2.80784 14.775,7.63831 20,10.73437 5.225,3.09606 13.775,8.4049 19,11.79742 5.225,3.39252 9.95,6.51853 10.5,6.9467 0.55,0.42817 3.925,2.99555 7.5,5.70529 3.575,2.70975 12.7228,11.02339 20.32845,18.47476 7.60564,7.45137 17.19976,17.69574 21.32025,22.76526 7.49181,9.2173 7.49181,9.2173 0.87926,20.16266 -3.63691,6.01994 -7.22629,11.4547 -7.9764,12.07724 z m -189.64657,-0.98101 c -0.32726,0.0131 -1.29623,-0.7637 -2.15327,-1.7262 -0.85704,-0.9625 -3.80513,-6.25 -6.55131,-11.75 -2.74618,-5.5 -5.75387,-11.8 -6.68377,-14 -0.9299,-2.2 -3.44825,-8.86568 -5.59634,-14.81261 -2.14809,-5.94694 -5.19234,-15.84694 -6.76501,-22 -1.57267,-6.15307 -3.35127,-13.43739 -3.95245,-16.18739 -0.60118,-2.75 -1.55132,-8.15 -2.11142,-12 -0.5601,-3.85 -1.48481,-10.23668 -2.0549,-14.19263 -0.57008,-3.95594 -1.03652,-12.96775 -1.03652,-20.02623 0,-7.05849 0.47575,-16.62778 1.05722,-21.2651 0.58147,-4.63732 2.14645,-12.62373 3.47774,-17.74757 1.33129,-5.12385 3.61946,-12.34287 5.08484,-16.04228 1.46537,-3.6994 4.22923,-9.87619 6.14191,-13.72619 1.91269,-3.85 6.76549,-11.95 10.78402,-18 4.42404,-6.66051 10.5902,-14.22277 15.63034,-19.16927 4.57816,-4.4931 10.6453,-10.1181 13.48253,-12.5 2.83723,-2.3819 10.07417,-7.15305 16.0821,-10.60255 6.00793,-3.44951 14.71156,-7.88697 19.3414,-9.86104 4.62985,-1.97406 12.2429,-4.90777 16.9179,-6.51935 4.675,-1.61158 13.60722,-3.81162 19.84937,-4.88897 7.59637,-1.31108 15.97675,-1.95882 25.34292,-1.95882 10.11547,0 16.80841,0.56653 24.15063,2.04426 5.58639,1.12434 14.20708,3.42623 19.15708,5.1153 4.95,1.68908 12.70697,4.78738 17.23772,6.88512 4.53074,2.09774 12.40574,6.16025 17.5,9.0278 5.09425,2.86756 11.73728,7.14165 14.76228,9.498 3.025,2.35634 8.68933,7.35444 12.5874,11.10689 3.89807,3.75245 9.01817,9.29763 11.378,12.32263 2.35984,3.025 5.88148,7.975 7.82587,11 1.9444,3.025 5.51744,9.49984 7.9401,14.38853 2.42266,4.88869 5.97969,13.21369 7.9045,18.5 1.92482,5.28631 4.59417,14.42218 5.9319,20.30193 1.33773,5.87976 2.43223,11.62961 2.43223,12.77746 0,2.0312 -0.38036,2.07958 -14.22704,1.80954 -14.22703,-0.27746 -14.22703,-0.27746 -15.89264,-7.44987 -0.91609,-3.94482 -2.67764,-10.24482 -3.91457,-14 -1.23692,-3.75517 -4.24906,-10.83342 -6.69364,-15.72943 -2.44458,-4.89601 -5.62603,-10.74601 -7.06988,-13 -1.44385,-2.25399 -4.88958,-7.02316 -7.65718,-10.59816 -2.7676,-3.575 -7.45533,-8.87002 -10.41718,-11.76671 -2.96185,-2.89668 -8.24922,-7.39668 -11.74973,-10 -3.5005,-2.60331 -10.0801,-6.62145 -14.62134,-8.92921 -4.54124,-2.30775 -12.5318,-5.74087 -17.7568,-7.62916 -5.225,-1.88828 -12.65,-4.04284 -16.5,-4.78791 -4.18394,-0.8097 -13.83899,-1.35731 -24,-1.36121 -10.27532,-0.004 -19.37342,0.50968 -23,1.29844 -3.3,0.71774 -8.25,1.99538 -11,2.83921 -2.75,0.84383 -7.925,2.63843 -11.5,3.98801 -3.575,1.34958 -7.61954,2.9926 -8.98787,3.65116 -1.36834,0.65856 -5.41834,2.94293 -9,5.07638 -3.58167,2.13345 -9.43713,6.04052 -13.01213,8.68239 -3.575,2.64186 -7.20096,5.62131 -8.05768,6.621 -0.85672,0.99969 -4.74492,5.50145 -8.64044,10.00392 -3.89552,4.50246 -9.58109,12.37746 -12.6346,17.5 -3.0535,5.12253 -7.11544,13.41689 -9.02653,18.43191 -1.91108,5.01501 -4.41206,13.44466 -5.55772,18.73255 -1.58534,7.3172 -2.08303,13.16084 -2.08303,24.45772 0,8.16385 0.66934,19.5342 1.48743,25.26744 0.81808,5.73324 1.90883,12.89907 2.42389,15.92407 0.51505,3.025 2.35792,10.86955 4.09526,17.43233 1.73735,6.56278 4.18622,14.66278 5.44194,18 1.25572,3.33722 3.76049,9.66767 5.56615,14.06767 1.80565,4.4 4.15803,9.25344 5.22749,10.78542 1.94447,2.78542 1.94447,2.78542 -2.39884,8.08947 -2.38883,2.91722 -6.36832,8.29057 -8.84332,11.94078 -2.475,3.6502 -4.76776,6.64744 -5.09501,6.66053 z"
         id="path3157"
         inkscape:connector-curvature="0" />
      <path
         style="fill:#000000"
         d="m 434.60308,758.48104 -320.5,0 0,-322.5 0,-322.5 320.5,0 320.5,0 0,322.5 0,322.5 -320.5,0 z m 1,-41.46428 c 11,-0.18365 21.125,-0.78245 22.5,-1.33067 1.375,-0.54823 4.3,-1.46522 6.5,-2.03777 2.2,-0.57255 6.25,-1.60586 9,-2.29625 2.75,-0.69038 8.375,-2.54382 12.5,-4.11875 4.125,-1.57492 12,-5.41965 17.5,-8.54383 5.5,-3.12418 12.925,-7.85344 16.5,-10.50948 3.575,-2.65603 9.41154,-7.38736 12.97009,-10.51406 3.55854,-3.1267 8.64489,-7.6813 11.30299,-10.12132 2.6581,-2.44003 6.8325,-7.29685 9.27644,-10.79294 2.44394,-3.49609 5.17845,-7.7777 6.07668,-9.51469 0.89823,-1.73699 2.33107,-3.85517 3.18408,-4.70706 0.85301,-0.8519 3.45944,-5.5989 5.79207,-10.5489 2.33263,-4.95 5.8198,-14.4 7.74927,-21 1.92947,-6.6 3.98968,-15.84835 4.57825,-20.5519 0.58857,-4.70354 1.0658,-15.50354 1.0605,-24 -0.005,-8.49645 -0.66527,-21.2981 -1.46662,-28.4481 -0.80135,-7.15 -2.35929,-17.37516 -3.46208,-22.72258 -1.1028,-5.34742 -2.95231,-13.43247 -4.11002,-17.96677 -1.15771,-4.53431 -4.72622,-15.45914 -7.93003,-24.27742 -3.2038,-8.81828 -7.91328,-20.75823 -10.4655,-26.53323 -2.55222,-5.775 -5.81552,-12.19886 -7.25176,-14.27525 -2.61136,-3.77526 -2.61136,-3.77526 -11.32763,9.5 -8.71626,13.27525 -8.71626,13.27525 -6.46084,17.77525 1.24048,2.475 4.46833,10.125 7.173,17 2.70467,6.875 6.55527,18.35 8.55689,25.5 2.00162,7.15 4.34594,17.05 5.20961,22 0.86366,4.95 2.00672,13.275 2.54013,18.5 0.5334,5.225 0.97762,17.04535 0.98715,26.26745 0.0137,13.2662 -0.41527,18.76415 -2.05441,26.32967 -1.27122,5.8674 -4.14452,14.14415 -7.4361,21.42021 -2.9504,6.52188 -7.08062,14.53818 -9.17826,17.81399 -2.09765,3.27582 -8.0889,10.54232 -13.3139,16.14779 -5.225,5.60547 -12.425,12.12445 -16,14.48661 -3.575,2.36217 -12.08123,7.07428 -18.90273,10.47137 -8.21248,4.08979 -16.32086,7.22712 -24,9.2862 -11.15036,2.98985 -12.36798,3.1096 -31.59727,3.10765 -17.31797,-0.002 -21.00576,-0.28533 -27.5,-2.11464 -4.125,-1.16194 -9.1721,-2.60285 -11.21578,-3.20201 -2.04368,-0.59917 -9.69368,-4.04047 -17,-7.64732 -7.30632,-3.60686 -15.98422,-8.63731 -19.28422,-11.17878 -3.3,-2.54147 -9.67321,-8.69951 -14.16268,-13.68453 -4.48947,-4.98501 -10.4487,-12.7495 -13.24273,-17.2544 -2.79403,-4.50491 -6.6322,-11.94031 -8.52926,-16.52312 -1.89706,-4.58282 -4.3399,-11.54659 -5.42854,-15.47507 -1.08863,-3.92847 -2.28934,-9.62385 -2.66823,-12.6564 -0.37889,-3.03256 -1.23269,-6.25742 -1.89732,-7.16636 -1.06881,-1.46169 -2.78356,-1.56827 -14.84124,-0.92246 -13.6328,0.73016 -13.6328,0.73016 -13.18664,3.36216 0.24538,1.44759 1.35113,7.61781 2.45721,13.71159 1.10608,6.09378 3.31193,14.86878 4.90189,19.5 1.58996,4.63122 4.09781,11.1204 5.57299,14.4204 1.47518,3.3 4.07294,8.25 5.7728,11 1.69986,2.75 5.41814,8.60013 8.26284,13.00028 3.59785,5.5651 8.64474,11.21047 16.58055,18.54673 6.2746,5.80054 14.33336,12.80612 17.90836,15.56795 3.575,2.76182 8.975,6.27865 12,7.81517 3.025,1.53651 6.175,3.36667 7,4.06702 0.825,0.70034 4.09843,2.44889 7.2743,3.88566 3.17586,1.43677 8.35086,3.47899 11.5,4.53827 3.14913,1.05928 9.3257,2.90444 13.7257,4.10036 4.4,1.19592 10.7,2.551 14,3.01129 3.3,0.46028 15,0.68663 26,0.50299 z m -151.5,-140.70728 c 3.575,0.0906 13.7,-0.51488 22.5,-1.34541 8.8,-0.83054 19.825,-2.2099 24.5,-3.06524 4.675,-0.85535 18.4,-4.25136 30.5,-7.5467 17.87395,-4.86782 24.81321,-7.30304 37,-12.98456 8.25,-3.84618 17.44153,-8.44368 20.42563,-10.21667 2.98409,-1.77299 5.59114,-3.72017 5.79344,-4.32708 0.2023,-0.6069 -1.8725,-2.84481 -4.61068,-4.97312 -2.73818,-2.12831 -7.77684,-5.62973 -11.19703,-7.78093 -5.38924,-3.38967 -6.56478,-3.77133 -8.81494,-2.86195 -1.42803,0.57712 -6.19642,2.49993 -10.59642,4.27292 -4.4,1.77299 -10.25196,4.23927 -13.00436,5.48062 -2.7524,1.24135 -11.5274,4.06165 -19.5,6.26732 -7.9726,2.20568 -17.87064,4.74272 -21.99564,5.63787 -4.125,0.89515 -12,2.40557 -17.5,3.35648 -6.76835,1.1702 -15.17064,1.71439 -26,1.68394 -15.2679,-0.0429 -16.64039,-0.21674 -29.99563,-3.79876 -7.69759,-2.06457 -17.51537,-5.27907 -21.81729,-7.14333 -4.30192,-1.86426 -10.82889,-5.27839 -14.50438,-7.58695 -3.67548,-2.30857 -10.08634,-7.02366 -14.24634,-10.47799 -4.16,-3.45433 -10.55922,-9.45608 -14.22049,-13.33721 -3.66126,-3.88113 -8.68692,-10.13807 -11.16813,-13.90431 -2.48121,-3.76624 -6.05635,-10.23812 -7.94475,-14.38195 -1.88841,-4.14383 -4.57461,-11.14659 -5.96933,-15.56168 -1.39473,-4.41509 -3.2835,-13.36136 -4.19727,-19.88059 -1.09652,-7.82309 -1.46711,-14.91315 -1.08996,-20.85316 0.31429,-4.95 1.24669,-12.15 2.07201,-16 0.82532,-3.85 2.87845,-11.21302 4.56253,-16.36228 1.68408,-5.14925 4.80672,-12.34925 6.93921,-16 2.13249,-3.65074 5.53151,-9.11272 7.55339,-12.13772 2.02187,-3.025 6.16523,-8.3337 9.20748,-11.79712 3.04224,-3.46341 10.32106,-9.8728 16.17515,-14.24307 5.85409,-4.37027 14.69922,-9.92066 19.65584,-12.3342 4.95662,-2.41354 12.66298,-5.54159 17.12525,-6.95122 4.46227,-1.40963 11.88185,-3.28745 16.48796,-4.17294 4.60611,-0.88549 9.38725,-2.02591 10.62475,-2.53428 2.17846,-0.89491 2.25,-1.35874 2.25,-14.58862 0,-13.66434 0,-13.66434 -7.75,-13.10177 -4.2625,0.30941 -12.925,1.91445 -19.25,3.56677 -6.325,1.65231 -15.1,4.44444 -19.5,6.20471 -4.4,1.76028 -11.6,4.99573 -16,7.18989 -4.4,2.19416 -12.5,7.40081 -18,11.57033 -5.5,4.16953 -12.04981,9.40583 -14.55512,11.63624 -2.50532,2.2304 -7.70298,7.65528 -11.55035,12.05528 -3.84737,4.4 -9.09642,10.96303 -11.66457,14.58452 -2.56814,3.62148 -6.52301,10.59648 -8.78861,15.5 -2.26559,4.90351 -4.95309,11.16548 -5.97222,13.91548 -1.01913,2.75 -2.53204,7.7 -3.36204,11 -0.82999,3.3 -2.30537,9.6 -3.27861,14 -1.34282,6.07082 -1.74366,12.09951 -1.66222,25 0.0837,13.26081 0.58623,19.3095 2.28467,27.5 1.19755,5.775 3.31709,13.875 4.71009,18 1.39301,4.125 4.66808,12 7.27793,17.5 2.60986,5.5 7.36593,13.825 10.56906,18.5 3.20313,4.675 8.50217,11.75336 11.77565,15.72969 3.27349,3.97634 9.77696,10.60106 14.45216,14.7216 4.67521,4.12055 12.59608,10.29711 17.60193,13.72569 5.00586,3.42858 13.84022,8.21221 19.63191,10.6303 5.79169,2.41809 13.48935,5.42216 17.10592,6.67572 3.61657,1.25356 11.04157,3.00115 16.5,3.88354 5.45843,0.88238 11.72442,1.76024 13.92442,1.95079 2.2,0.19056 6.925,0.42056 10.5,0.51111 z m 306.90324,-4.82844 c 1.6313,0 6.25793,-0.6841 10.28138,-1.52021 4.02346,-0.83612 13.61538,-3.58594 21.31538,-6.11072 7.7,-2.52478 16.90385,-6.15738 20.45301,-8.07245 3.54915,-1.91507 10.60517,-6.37687 15.68004,-9.9151 5.07487,-3.53823 13.02823,-9.90903 17.67413,-14.15733 4.6459,-4.24831 10.1366,-9.74919 12.20155,-12.22419 2.06496,-2.475 6.87675,-8.8722 10.69288,-14.21601 3.81612,-5.3438 8.66315,-12.9938 10.77117,-17 2.10801,-4.00619 5.39533,-11.78399 7.30514,-17.28399 1.90982,-5.5 4.17626,-13.825 5.03655,-18.5 0.86029,-4.675 2.01771,-11.2 2.57206,-14.5 0.55434,-3.3 0.80647,-11.4 0.5603,-18 -0.24618,-6.6 -1.17321,-16.275 -2.06008,-21.5 -0.88686,-5.225 -2.89126,-13.41557 -4.45422,-18.20127 -1.56296,-4.7857 -5.09348,-13.47495 -7.8456,-19.30944 -2.75212,-5.83449 -6.70199,-12.94392 -8.77749,-15.79873 -2.07549,-2.85481 -6.98328,-9.01556 -10.90618,-13.69056 -3.92291,-4.675 -9.14786,-10.35669 -11.61102,-12.62598 -2.46315,-2.26929 -8.93208,-7.41523 -14.37539,-11.43543 -5.86103,-4.32871 -14.79449,-9.63255 -21.90689,-13.00624 -6.60548,-3.13324 -15.60996,-6.83088 -20.00996,-8.21699 -4.4,-1.38611 -12.725,-3.57571 -18.5,-4.86578 -9.30165,-2.07789 -13.01083,-2.3426 -32.5,-2.31947 -19.63901,0.0233 -23.60976,0.3216 -37,2.7795 -8.25,1.51437 -15.675,2.99619 -16.5,3.29294 -0.825,0.29675 -3.3,0.91999 -5.5,1.38499 -2.2,0.46499 -8.725,2.18466 -14.5,3.82149 -5.775,1.63682 -16.125,5.006 -23,7.48706 -6.875,2.48107 -17.675,6.9676 -24,9.97008 -6.325,3.00247 -12.2655,6.3195 -13.20111,7.37116 -1.61888,1.81967 -1.57054,1.99506 1,3.62828 1.48561,0.9439 7.17945,4.64527 12.65298,8.22528 5.47353,3.58001 10.25463,6.50911 10.62468,6.50911 0.37005,0 5.91652,-2.25 12.32549,-5 6.40898,-2.75 11.98332,-5 12.38744,-5 0.40412,0 4.32931,-1.1511 8.72264,-2.558 4.39333,-1.4069 13.16288,-3.84944 19.48788,-5.42786 6.325,-1.57843 16.225,-3.60535 22,-4.50426 5.775,-0.89891 12.65965,-2.05637 15.29922,-2.57213 2.63957,-0.51576 10.51457,-0.92995 17.5,-0.92042 6.98543,0.01 16.76194,0.44537 21.72559,0.96854 4.96364,0.52316 13.50519,2.33036 18.98122,4.01599 5.47604,1.68563 14.56079,5.26423 20.18834,7.95246 5.62756,2.68822 11.93601,6.15482 14.01878,7.70354 2.08277,1.54872 7.38685,5.80654 11.78685,9.46182 4.4,3.65528 9.16946,7.93619 10.5988,9.51314 1.42935,1.57695 4.62745,5.79218 7.1069,9.36718 2.47946,3.575 6.09227,9.425 8.02847,13 1.9362,3.575 4.68841,9.65 6.11602,13.5 1.42761,3.85 3.50978,10.825 4.62704,15.5 1.54643,6.47077 2.03842,11.96162 2.06082,23 0.0217,10.69253 -0.49132,16.99455 -1.95371,24 -1.09073,5.225 -3.06714,12.65 -4.39203,16.5 -1.32488,3.85 -4.02201,10.15 -5.99361,14 -1.97159,3.85 -5.35263,9.61832 -7.51341,12.81849 -2.16077,3.20017 -7.08731,9.05017 -10.94786,13 -3.86056,3.94983 -9.43079,9.30157 -12.37831,11.89277 -2.94752,2.59119 -7.38412,6.20882 -9.85912,8.03919 -2.475,1.83036 -7.9746,5.1972 -12.22134,7.48187 -4.24673,2.28466 -10.94109,5.31536 -14.87635,6.73488 -3.93527,1.41953 -9.23566,3.05472 -11.77867,3.63376 -2.543,0.57903 -7.03337,1.45229 -9.97859,1.94057 -2.94522,0.48828 -5.99184,1.41635 -6.77026,2.06239 -1.14181,0.94762 -1.29885,3.51497 -0.81263,13.28534 0.33148,6.66091 0.77648,12.67324 0.98888,13.36074 0.21241,0.6875 1.72089,1.25 3.3522,1.25 z m -44.03806,-1.32272 c 3.36518,-0.01 3.36518,-0.01 2.75159,-12.59364 -0.33748,-6.921 -0.64653,-13.31472 -0.68678,-14.20825 -0.0545,-1.21093 -1.13716,-1.65112 -4.25158,-1.72869 -2.29813,-0.0573 -8.67841,-0.98187 -14.17841,-2.05471 -5.5,-1.07285 -14.95,-3.30507 -21,-4.96048 -6.05,-1.65541 -15.66075,-4.59034 -21.35723,-6.52207 -5.69648,-1.93173 -18.52148,-7.50639 -28.5,-12.38813 -9.97852,-4.88174 -23.31777,-12.29326 -29.64277,-16.47004 -6.325,-4.17679 -13.1287,-8.86701 -15.11933,-10.42271 -1.99064,-1.55571 -6.94064,-5.5199 -11,-8.80932 -4.05937,-3.28942 -11.01521,-9.46409 -15.45743,-13.7215 -4.44221,-4.2574 -11.86721,-12.56335 -16.5,-18.45766 -4.63278,-5.8943 -10.06137,-12.45337 -12.06352,-14.57571 -3.64029,-3.85879 -3.64029,-3.85879 -5.53245,-1.4533 -1.04069,1.32302 -4.30612,7.08176 -7.25652,12.79721 -5.36437,10.39172 -5.36437,10.39172 -2.19817,15.06547 1.7414,2.57056 8.63589,10.36623 15.32107,17.32372 6.68519,6.95748 17.36396,16.78773 23.73062,21.84499 6.36665,5.05726 15.85073,12.41092 21.07573,16.34145 5.225,3.93054 13.55,9.6845 18.5,12.78658 4.95,3.10208 16.37657,9.24482 25.39237,13.65053 9.0158,4.40572 20.73929,9.76297 26.0522,11.90502 5.31291,2.14204 15.81191,5.47138 23.3311,7.39852 7.5192,1.92714 19.64571,4.62987 26.9478,6.00605 7.30209,1.37619 14.40153,2.67193 15.77653,2.87942 1.375,0.20749 4.01433,0.37275 5.86518,0.36725 z M 293.98649,543.48104 c 5.97662,0 12.25223,-0.27713 13.9458,-0.61584 2.76761,-0.55352 3.18572,-1.13539 4.13177,-5.75 0.5789,-2.82379 1.93534,-9.85916 3.01431,-15.63416 1.07897,-5.775 2.61799,-13.425 3.42005,-17 0.80206,-3.575 2.58995,-9.875 3.97309,-14 1.38314,-4.125 3.58943,-10.2 4.90287,-13.5 1.31343,-3.3 3.68511,-8.925 5.27039,-12.5 1.58528,-3.575 6.02357,-12.35 9.86288,-19.5 3.8393,-7.15 9.24251,-16.15 12.00712,-20 2.76461,-3.85 7.233,-9.7 9.92976,-13 2.69676,-3.3 10.29404,-11.74589 16.88285,-18.76864 6.58882,-7.02276 15.87127,-16.05198 20.62768,-20.06494 4.75641,-4.01297 10.67302,-8.6772 13.14802,-10.36496 2.475,-1.68777 5.35724,-4.02105 6.40499,-5.18506 1.04774,-1.16402 2.6871,-2.1164 3.64301,-2.1164 0.95591,0 2.02125,-0.73807 2.36741,-1.64016 0.40074,-1.0443 -0.16545,-2.22501 -1.55849,-3.25 -1.20333,-0.88541 -6.72591,-3.96544 -12.2724,-6.84451 -5.54648,-2.87907 -11.06932,-5.24157 -12.27297,-5.25 -1.20365,-0.008 -5.92435,2.79717 -10.49043,6.23467 -4.56609,3.4375 -11.44774,9.175 -15.29257,12.75 -3.84483,3.575 -10.21956,9.875 -14.16606,14 -3.9465,4.125 -12.19528,13.8 -18.33061,21.5 -6.13534,7.7 -14.02278,18.275 -17.52766,23.5 -3.50487,5.225 -9.07556,14.93674 -12.37929,21.58164 -3.30374,6.6449 -7.78047,16.5449 -9.9483,22 -2.16783,5.4551 -5.39368,14.41836 -7.16855,19.91836 -1.77487,5.5 -4.08421,12.925 -5.13186,16.5 -1.04765,3.575 -3.02491,12.65071 -4.39391,20.16823 -1.369,7.51753 -2.70878,16.63003 -2.9773,20.25 -0.4882,6.58177 -0.4882,6.58177 10.3784,6.58177 z m 168.47269,-31.07887 c 0.47085,0.0434 2.72085,-1.36294 5,-3.12515 2.27914,-1.76221 7.5023,-5.92471 11.60702,-9.25 4.10472,-3.32529 10.80323,-9.19598 14.8856,-13.04598 4.08236,-3.85 11.29895,-11.57387 16.03687,-17.16416 4.73793,-5.59029 10.68462,-13.01529 13.21488,-16.5 2.53026,-3.48471 8.62383,-12.63584 13.54126,-20.33584 4.91743,-7.7 11.69939,-19.18685 15.07102,-25.52634 3.37163,-6.33949 7.45663,-14.88949 9.07777,-19 1.62114,-4.11051 5.00989,-13.54866 7.53057,-20.97366 2.52068,-7.425 5.91728,-19.125 7.54801,-26 1.63072,-6.875 3.45229,-15.17015 4.04793,-18.43366 0.59563,-3.26351 1.08297,-7.20101 1.08297,-8.75 0,-2.81634 0,-2.81634 -12.37756,-2.81634 -9.54053,0 -12.65087,0.32934 -13.57003,1.43685 -0.65586,0.79026 -1.8306,5.09214 -2.61054,9.55972 -0.77994,4.46759 -2.13018,10.9085 -3.00054,14.31316 -0.87036,3.40465 -3.3898,11.95458 -5.59875,18.99986 -2.20896,7.04527 -6.01151,17.57187 -8.45011,23.39244 -2.43861,5.82058 -5.18252,12.20626 -6.0976,14.19042 -0.91507,1.98415 -3.71511,7.20755 -6.22229,11.60755 -2.50719,4.4 -7.0642,11.6 -10.1267,16 -3.06249,4.4 -7.11565,10.13798 -9.00702,12.75107 -1.89138,2.61309 -6.59054,8.68809 -10.44259,13.5 -3.85205,4.81191 -8.11736,10.09893 -9.47848,11.74893 -1.36112,1.65 -5.85944,6.32543 -9.99627,10.38984 -4.13684,4.06441 -12.47152,11.36611 -18.52152,16.22599 -6.05,4.85989 -12.25332,9.79429 -13.78516,10.96534 -2.15413,1.64678 -2.5322,2.43397 -1.6687,3.47443 0.61406,0.73989 3.66738,2.81035 6.78516,4.60103 3.11779,1.79068 7.6937,4.2525 10.1687,5.47071 2.475,1.2182 4.88524,2.25041 5.3561,2.29379 z m 46.19546,-92.96392 c 0.75011,-0.62254 4.33949,-6.0573 7.9764,-12.07724 6.61255,-10.94536 6.61255,-10.94536 -0.87926,-20.16266 -4.12049,-5.06952 -13.71461,-15.31389 -21.32025,-22.76526 -7.60565,-7.45137 -16.75345,-15.76501 -20.32845,-18.47476 -3.575,-2.70974 -6.95,-5.27712 -7.5,-5.70529 -0.55,-0.42817 -5.275,-3.55418 -10.5,-6.9467 -5.225,-3.39252 -13.775,-8.70136 -19,-11.79742 -5.225,-3.09606 -14.225,-7.92653 -20,-10.73437 -5.775,-2.80785 -12.975,-6.20928 -16,-7.55875 -3.025,-1.34947 -8.875,-3.60161 -13,-5.00475 -4.125,-1.40314 -10.425,-3.43726 -14,-4.52026 -3.575,-1.08301 -8.975,-2.65126 -12,-3.48502 -3.025,-0.83375 -9.55,-2.45143 -14.5,-3.59484 -4.95,-1.14341 -13.49306,-2.74798 -18.98459,-3.56571 -8.82888,-1.31469 -10.24681,-1.31497 -12.25,-0.002 -2.12465,1.3917 -2.26541,2.16152 -2.26541,12.38944 0,8.57635 0.3353,11.24082 1.56993,12.47545 0.86346,0.86346 2.55096,1.76133 3.75,1.99526 1.19904,0.23393 6.45507,1.17174 11.68007,2.08402 5.225,0.91228 14.675,3.01181 21,4.66562 6.325,1.65382 15.1,4.14635 19.5,5.53897 4.4,1.39262 12.275,4.32703 17.5,6.52093 5.225,2.19389 9.95546,4.35549 10.51214,4.80355 0.55668,0.44807 3.70668,1.81704 7,3.04216 3.29332,1.22513 11.16286,5.09703 17.48786,8.60423 6.325,3.5072 14.65,8.82582 18.5,11.81917 3.85,2.99334 11.19531,8.71766 16.32291,12.72073 5.12761,4.00306 14.47898,12.60217 20.78083,19.10914 6.30186,6.50697 13.71068,14.60697 16.46405,18 2.75338,3.39303 6.38174,7.8767 8.06303,9.9637 2.40417,2.98429 3.34812,3.55285 4.42074,2.66266 z m -189.64657,-0.98101 c 0.32725,-0.0131 2.62001,-3.01033 5.09501,-6.66053 2.475,-3.65021 6.45449,-9.02356 8.84332,-11.94078 4.34331,-5.30405 4.34331,-5.30405 2.39884,-8.08947 -1.06946,-1.53198 -3.42184,-6.38542 -5.22749,-10.78542 -1.80566,-4.4 -4.31043,-10.73045 -5.56615,-14.06767 -1.25572,-3.33722 -3.70459,-11.43722 -5.44194,-18 -1.73734,-6.56278 -3.58021,-14.40733 -4.09526,-17.43233 -0.51506,-3.025 -1.60581,-10.19083 -2.42389,-15.92407 -0.81809,-5.73324 -1.48743,-17.10359 -1.48743,-25.26744 0,-11.29688 0.49769,-17.14052 2.08303,-24.45772 1.14566,-5.28789 3.64664,-13.71754 5.55772,-18.73255 1.91109,-5.01502 5.97303,-13.30938 9.02653,-18.43191 3.05351,-5.12254 8.73908,-12.99754 12.6346,-17.5 3.89552,-4.50247 7.78372,-9.00423 8.64044,-10.00392 0.85672,-0.99969 4.48268,-3.97914 8.05768,-6.621 3.575,-2.64187 9.43046,-6.54894 13.01213,-8.68239 3.58166,-2.13345 7.63166,-4.41782 9,-5.07638 1.36833,-0.65856 5.41287,-2.30158 8.98787,-3.65116 3.575,-1.34958 8.75,-3.14418 11.5,-3.98801 2.75,-0.84383 7.7,-2.12147 11,-2.83921 3.62658,-0.78876 12.72468,-1.30239 23,-1.29844 10.16101,0.004 19.81606,0.55151 24,1.36121 3.85,0.74507 11.275,2.89963 16.5,4.78791 5.225,1.88829 13.21556,5.32141 17.7568,7.62916 4.54124,2.30776 11.12084,6.3259 14.62134,8.92921 3.50051,2.60332 8.78788,7.10332 11.74973,10 2.96185,2.89669 7.64958,8.19171 10.41718,11.76671 2.7676,3.575 6.21333,8.34417 7.65718,10.59816 1.44385,2.25399 4.6253,8.10399 7.06988,13 2.44458,4.89601 5.45672,11.97426 6.69364,15.72943 1.23693,3.75518 2.99848,10.05518 3.91457,14 1.66561,7.17241 1.66561,7.17241 15.89264,7.44987 13.84668,0.27004 14.22704,0.22166 14.22704,-1.80954 0,-1.14785 -1.0945,-6.8977 -2.43223,-12.77746 -1.33773,-5.87975 -4.00708,-15.01562 -5.9319,-20.30193 -1.92481,-5.28631 -5.48184,-13.61131 -7.9045,-18.5 -2.42266,-4.88869 -5.9957,-11.36353 -7.9401,-14.38853 -1.94439,-3.025 -5.46603,-7.975 -7.82587,-11 -2.35983,-3.025 -7.47993,-8.57018 -11.378,-12.32263 -3.89807,-3.75245 -9.5624,-8.75055 -12.5874,-11.10689 -3.025,-2.35635 -9.66803,-6.63044 -14.76228,-9.498 -5.09426,-2.86755 -12.96926,-6.93006 -17.5,-9.0278 -4.53075,-2.09774 -12.28772,-5.19604 -17.23772,-6.88512 -4.95,-1.68907 -13.57069,-3.99096 -19.15708,-5.1153 -7.34222,-1.47773 -14.03516,-2.04426 -24.15063,-2.04426 -9.36617,0 -17.74655,0.64774 -25.34292,1.95882 -6.24215,1.07735 -15.17437,3.27739 -19.84937,4.88897 -4.675,1.61158 -12.28805,4.54529 -16.9179,6.51935 -4.62984,1.97407 -13.33347,6.41153 -19.3414,9.86104 -6.00793,3.4495 -13.24487,8.22065 -16.0821,10.60255 -2.83723,2.3819 -8.90437,8.0069 -13.48253,12.5 -5.04014,4.9465 -11.2063,12.50876 -15.63034,19.16927 -4.01853,6.05 -8.87133,14.15 -10.78402,18 -1.91268,3.85 -4.67654,10.02679 -6.14191,13.72619 -1.46538,3.69941 -3.75355,10.91843 -5.08484,16.04228 -1.33129,5.12384 -2.89627,13.11025 -3.47774,17.74757 -0.58147,4.63732 -1.05722,14.20661 -1.05722,21.2651 0,7.05848 0.46644,16.07029 1.03652,20.02623 0.57009,3.95595 1.4948,10.34263 2.0549,14.19263 0.5601,3.85 1.51024,9.25 2.11142,12 0.60118,2.75 2.37978,10.03432 3.95245,16.18739 1.57267,6.15306 4.61692,16.05306 6.76501,22 2.14809,5.94693 4.66644,12.61261 5.59634,14.81261 0.9299,2.2 3.93759,8.5 6.68377,14 2.74618,5.5 5.69427,10.7875 6.55131,11.75 0.85704,0.9625 1.82601,1.73929 2.15327,1.7262 z"
         id="path3155"
         inkscape:connector-curvature="0" />
    </g>
  </g>
</svg>
